<!DOCTYPE svg PUBLIC "-//W3C//DTD SVG 20010904//EN" "http://www.w3.org/TR/2001/REC-SVG-20010904/DTD/svg10.dtd">
<svg version="1.0" xmlns="http://www.w3.org/2000/svg" width="350px" height="173px" viewBox="0 0 3500 1730" preserveAspectRatio="xMidYMid meet">
<g id="layer101" fill="#efefef" stroke="none">
 <path d="M2733 1348 l-133 -131 0 -89 0 -88 88 0 87 0 133 132 c72 72 132 137 132 143 0 18 -143 165 -160 165 -8 0 -75 -59 -147 -132z m17 -152 c28 -35 -11 -93 -47 -70 -24 15 -28 48 -8 68 20 20 39 20 55 2z"/>
 <path d="M840 1294 c-129 -56 -148 -224 -35 -310 25 -18 34 -32 30 -44 -16 -49 -22 -131 -14 -178 12 -79 45 -139 113 -207 32 -33 75 -89 93 -125 62 -118 116 -151 138 -84 l10 31 39 -13 c92 -32 259 -35 315 -5 25 14 26 20 3 46 -61 72 -169 115 -289 115 l-76 0 41 44 c50 54 72 96 72 136 0 39 -15 38 -76 -2 -57 -38 -119 -117 -136 -170 -6 -21 -15 -35 -19 -32 -27 16 11 167 64 257 l25 42 69 0 c59 0 76 4 110 27 115 76 106 248 -18 310 -46 24 -125 23 -166 -2 -22 -13 -33 -16 -33 -7 0 31 -23 89 -47 117 -53 64 -139 86 -213 54z m217 -409 c6 -11 20 -29 32 -39 l20 -18 -25 -34 c-31 -40 -57 -108 -74 -188 l-12 -58 -39 38 c-80 78 -118 216 -90 322 11 41 13 42 54 42 23 0 55 8 72 18 l30 19 11 -41 c6 -23 16 -50 21 -61z"/>
 <path d="M1813 1193 c-18 -3 -23 -11 -23 -34 0 -25 4 -29 29 -29 20 0 36 -9 50 -26 20 -25 21 -39 21 -245 l0 -219 40 0 40 0 0 150 0 150 216 0 216 0 -4 -74 c-5 -110 -13 -116 -154 -116 l-113 0 -22 -31 -22 -31 23 -47 c12 -25 42 -74 67 -109 l44 -62 29 17 c28 16 29 18 14 41 -28 43 -84 140 -84 146 0 3 45 6 100 6 56 0 111 5 125 12 47 21 67 79 73 205 l5 113 -255 0 -255 0 -6 49 c-7 57 -29 106 -55 120 -24 12 -73 19 -99 14z"/>
 <path d="M1530 1155 c0 -33 2 -35 34 -35 62 0 66 -15 66 -267 l0 -223 40 0 40 0 0 216 c0 137 -4 231 -12 256 -17 58 -58 88 -119 88 l-49 0 0 -35z"/>
 <path d="M1630 525 c0 -34 1 -35 40 -35 39 0 40 1 40 35 0 34 -1 35 -40 35 -39 0 -40 -1 -40 -35z"/>
 </g>

</svg>