<!DOCTYPE svg PUBLIC "-//W3C//DTD SVG 20010904//EN" "http://www.w3.org/TR/2001/REC-SVG-20010904/DTD/svg10.dtd">
<svg id="gpssign" version="1.0" xmlns="http://www.w3.org/2000/svg"  viewBox="0 0 1740 2810" preserveAspectRatio="xMidYMid meet">
<g id="gpssign" fill="#ea5a9f" stroke="none">
 <path d="M819 2638 c-12 -24 -128 -234 -257 -468 -428 -774 -438 -794 -465 -915 -24 -111 -29 -186 -18 -268 30 -212 150 -426 306 -544 75 -58 220 -127 305 -147 100 -24 306 -21 400 5 225 62 404 209 506 414 62 126 84 221 84 365 0 145 -22 238 -88 370 -26 53 -188 351 -361 663 l-315 567 -38 0 c-34 0 -39 -4 -59 -42z m195 -1188 c78 -26 147 -79 191 -145 57 -86 68 -130 63 -248 -3 -85 -8 -110 -30 -152 -40 -78 -102 -141 -171 -175 -167 -82 -340 -58 -463 65 -157 156 -160 404 -7 559 45 45 116 89 173 107 51 15 185 10 244 -11z"/>
 <path d="M716 1320 c-46 -41 -50 -93 -10 -133 22 -23 25 -31 19 -71 -9 -57 7 -104 52 -158 20 -24 49 -64 65 -90 30 -49 47 -58 67 -35 8 10 24 12 63 6 65 -9 140 0 135 15 -7 22 -71 56 -127 67 l-59 11 25 39 c13 21 24 46 24 54 0 30 -60 -13 -93 -67 -25 -40 -33 -47 -35 -31 -4 24 35 130 51 140 7 5 19 8 27 9 8 1 25 2 36 3 12 0 33 13 48 27 37 38 36 86 -5 126 -28 28 -34 30 -80 25 -39 -5 -49 -3 -49 8 0 25 -53 75 -86 81 -25 5 -38 0 -68 -26z m138 -196 c18 -45 18 -46 -2 -92 -12 -26 -24 -57 -27 -70 -6 -19 -9 -21 -22 -11 -20 18 -50 78 -58 120 -8 45 8 86 37 92 48 9 53 7 72 -39z"/>
 </g>

</svg>