<svg id="logo" version="1.0" xmlns="http://www.w3.org/2000/svg"  viewBox="0 0 10810 12000" preserveAspectRatio="xMidYMid meet">
<g id="layer101" stroke="none">
 <path d="M3610 10333 c-183 -32 -382 -112 -540 -218 -102 -69 -274 -237 -350 -342 -122 -172 -204 -375 -236 -588 -19 -121 -13 -361 11 -475 92 -422 354 -753 756 -957 l96 -48 -39 -115 c-185 -550 -226 -1101 -118 -1605 50 -234 179 -553 310 -770 204 -338 509 -664 886 -948 l91 -68 68 -152 c88 -196 246 -510 336 -668 186 -325 411 -593 559 -667 108 -54 211 -40 264 36 60 88 121 278 133 417 3 41 7 75 9 75 2 0 59 -22 126 -49 437 -174 861 -262 1406 -292 406 -22 794 23 1096 128 127 44 286 118 286 133 0 23 -73 142 -140 228 -242 312 -595 546 -1075 712 -205 71 -541 147 -745 170 -58 6 -118 13 -135 16 -16 2 -124 9 -240 15 -191 10 -337 8 -605 -6 l-95 -6 29 23 c202 159 433 380 542 518 210 266 341 530 389 785 19 100 20 304 2 311 -34 13 -337 -122 -490 -218 -564 -353 -975 -903 -1225 -1641 -17 -49 -32 -90 -35 -93 -11 -11 -68 141 -82 221 -22 120 -22 366 0 510 66 446 273 958 613 1520 47 77 108 174 135 215 28 41 51 76 51 77 1 1 46 -13 102 -32 161 -54 257 -69 444 -70 186 0 305 17 455 67 394 132 723 448 859 826 182 507 61 1060 -314 1428 -281 277 -602 408 -995 408 -353 -1 -644 -111 -936 -353 l-40 -34 8 39 c4 21 7 111 7 199 -1 232 -39 396 -137 590 -201 401 -579 678 -1022 750 -115 19 -363 18 -475 -2z m1218 -2388 c-15 -90 -3 -354 21 -455 50 -215 130 -382 266 -554 70 -89 139 -159 230 -231 33 -26 62 -49 64 -51 2 -2 -30 -39 -71 -83 -167 -180 -338 -460 -453 -740 -128 -313 -227 -702 -300 -1181 -15 -96 -28 -176 -29 -177 -8 -9 -298 242 -396 343 -359 370 -583 789 -680 1274 -42 208 -54 367 -47 609 8 292 54 572 136 839 l31 99 52 -9 c92 -16 334 -12 443 7 245 41 507 166 690 329 28 24 51 43 51 43 1 -1 -3 -29 -8 -62z"/>
 </g>

</svg>