<!DOCTYPE svg PUBLIC "-//W3C//DTD SVG 20010904//EN" "http://www.w3.org/TR/2001/REC-SVG-20010904/DTD/svg10.dtd">
<svg version="1.0" xmlns="http://www.w3.org/2000/svg" width="1080px" height="678px" viewBox="0 0 10800 6780" preserveAspectRatio="xMidYMid meet">
<g id="layer101" fill="#c73b4e" stroke="none">
<path d="M4274 5580 c-200 -79 -249 -349 -107 -589 21 -35 66 -97 101 -137 l63 -74 -26 -43 c-30 -52 -31 -87 -6 -143 43 -94 238 -188 323 -155 17 6 30 22 38 46 21 62 -6 111 -106 195 -46 39 -84 75 -84 79 0 4 9 16 20 26 37 33 26 48 -29 42 l-49 -6 -85 88 c-113 117 -148 189 -155 316 -4 76 -1 99 15 136 31 68 68 106 129 128 125 47 225 13 376 -128 67 -62 98 -76 98 -43 0 54 -141 202 -237 248 -75 37 -205 43 -279 14z m235 -956 c79 -74 97 -106 66 -118 -19 -7 -86 19 -138 53 -59 38 -81 95 -57 142 14 26 29 17 129 -77z"/>
<path d="M4790 5268 c0 -23 16 -39 106 -112 73 -59 95 -84 125 -139 55 -106 82 -127 164 -133 37 -3 76 -9 85 -14 27 -14 50 -73 50 -125 0 -57 14 -85 42 -85 55 0 64 86 18 177 -34 68 -83 108 -146 118 -22 3 -49 8 -60 10 -15 3 -34 30 -63 89 -47 95 -94 143 -189 194 -62 33 -132 43 -132 20z"/>
<path d="M5257 5210 c-62 -49 -6 -157 62 -121 17 9 19 20 18 73 -2 60 -3 63 -28 66 -14 2 -37 -6 -52 -18z"/>
<path d="M2720 5190 c-43 -43 -15 -120 43 -120 34 0 42 14 43 83 l1 57 -33 0 c-21 0 -42 -8 -54 -20z"/>
<path d="M4521 5156 c-16 -19 3 -38 116 -114 61 -41 95 -71 111 -100 29 -51 28 -58 -7 -77 -44 -22 -46 -45 -11 -115 33 -65 62 -87 105 -76 74 19 87 105 34 232 -44 105 -99 163 -211 219 -96 48 -119 53 -137 31z"/>
<path d="M2350 5133 c-49 -17 -55 -95 -11 -145 l29 -34 -66 4 c-87 4 -131 -18 -150 -74 -11 -33 -10 -62 8 -203 21 -164 40 -232 74 -260 15 -12 19 -12 33 1 14 15 13 33 -11 207 -27 202 -25 238 14 248 10 3 21 15 23 27 4 21 4 21 6 0 1 -17 12 -23 57 -33 30 -7 80 -24 110 -37 68 -30 82 -30 93 -1 12 32 5 44 -58 86 -70 48 -131 110 -131 133 0 29 12 22 80 -47 98 -98 126 -115 205 -121 37 -2 77 -11 89 -19 11 -8 33 -43 47 -78 23 -56 28 -62 54 -62 27 0 30 4 40 56 14 69 20 78 58 94 67 28 128 -25 146 -127 20 -113 91 -121 91 -10 0 58 -51 153 -102 188 -35 25 -51 29 -107 29 -70 0 -105 -15 -127 -57 l-11 -21 -13 22 c-16 31 -85 60 -140 61 -84 0 -114 16 -199 100 -75 76 -94 86 -131 73z m-53 -200 c-4 -3 -7 0 -7 7 0 7 3 10 7 7 3 -4 3 -10 0 -14z m390 -25 c-3 -7 -5 -2 -5 12 0 14 2 19 5 13 2 -7 2 -19 0 -25z"/>
<path d="M3370 4942 c-59 -29 -65 -66 -40 -261 22 -171 43 -241 78 -260 15 -8 23 -7 32 4 10 12 7 54 -14 206 -29 214 -26 236 29 251 42 11 88 -7 124 -47 37 -43 51 -90 51 -180 0 -87 22 -139 62 -143 24 -3 28 1 34 34 10 56 -3 185 -25 245 -26 67 -71 124 -122 149 -50 26 -159 27 -209 2z"/>
<path d="M1072 4928 c-19 -25 -23 -59 -12 -93 13 -38 35 -55 72 -55 35 0 48 18 48 67 0 33 -6 50 -25 68 -26 27 -66 33 -83 13z"/>
<path d="M1442 4928 c-19 -25 -23 -59 -12 -93 13 -38 35 -55 72 -55 35 0 48 18 48 67 0 33 -6 50 -25 68 -26 27 -66 33 -83 13z"/>
<path d="M1812 4928 c-19 -25 -23 -59 -12 -93 13 -38 35 -55 72 -55 35 0 48 18 48 67 0 33 -6 50 -25 68 -26 27 -66 33 -83 13z"/>
<path d="M3520 4440 c0 -77 107 -246 360 -570 75 -96 195 -254 265 -350 71 -96 133 -178 139 -182 22 -15 28 -7 23 27 -9 54 -140 264 -288 460 -74 99 -191 254 -260 345 -68 91 -146 195 -172 233 -26 37 -52 67 -58 67 -5 0 -9 -14 -9 -30z"/>
<path d="M2975 4423 c-15 -41 104 -103 197 -103 44 0 108 24 108 40 0 17 -46 30 -104 30 -36 0 -68 8 -102 25 -58 29 -89 32 -99 8z"/>
<path d="M7624 3841 c-176 -28 -314 -135 -358 -278 -6 -19 -4 -23 14 -23 15 0 45 24 86 68 74 81 142 116 252 132 150 21 309 -31 465 -151 115 -89 210 -238 226 -354 8 -54 7 -55 -26 -77 -66 -45 -66 -128 -1 -183 52 -44 110 -29 128 33 27 98 0 263 -63 388 -151 300 -455 487 -723 445z"/>
<path d="M3213 3829 c-88 -17 -201 -87 -177 -109 5 -4 43 -2 84 6 165 29 327 12 444 -47 175 -89 393 -299 489 -472 21 -37 43 -67 50 -67 7 0 22 16 35 35 28 44 57 48 48 8 -22 -94 -21 -98 24 -147 44 -47 140 -113 205 -140 51 -22 87 -20 119 5 52 41 24 131 -70 230 -40 41 -54 63 -47 70 6 6 39 11 74 12 92 2 121 -16 151 -95 22 -57 27 -63 53 -63 28 0 30 3 41 60 14 70 39 95 93 95 48 -1 75 -26 104 -96 21 -53 26 -59 52 -59 28 0 30 3 41 60 9 43 19 65 38 80 20 16 26 30 26 58 0 20 -5 37 -10 37 -28 0 -81 -32 -91 -54 l-12 -25 -29 29 c-66 66 -207 65 -248 -2 -17 -29 -19 -29 -29 -10 -6 11 -31 30 -57 42 -42 21 -56 22 -148 17 -55 -3 -117 -11 -137 -18 -33 -10 -44 -9 -93 12 -50 20 -60 21 -92 10 -20 -7 -37 -11 -38 -9 -2 1 -41 55 -88 118 -135 183 -305 329 -450 386 -122 48 -253 64 -355 43z m1153 -714 c68 -49 104 -91 104 -124 0 -28 -14 -26 -85 10 -96 48 -145 102 -125 139 16 30 36 25 106 -25z"/>
<path d="M6025 3655 c-14 -13 -25 -31 -25 -40 0 -20 19 -57 34 -67 18 -12 63 -9 74 5 8 9 9 64 3 120 -2 18 -63 6 -86 -18z"/>
<path d="M5023 3613 c-19 -7 -16 -47 5 -66 64 -59 246 -74 266 -22 8 23 -19 35 -97 44 -47 5 -89 17 -110 30 -35 21 -43 23 -64 14z"/>
<path d="M8760 3540 c-24 -15 -3 -39 96 -105 65 -44 95 -71 113 -103 l23 -44 -36 -30 c-20 -16 -36 -35 -36 -42 0 -22 41 -107 61 -127 24 -24 80 -25 109 -1 19 15 23 28 22 75 0 63 5 67 62 43 42 -18 77 -64 106 -141 17 -46 24 -91 29 -196 5 -115 9 -140 25 -158 69 -76 97 60 56 271 -26 133 -25 160 3 185 89 82 173 46 217 -92 15 -49 24 -112 30 -209 6 -114 11 -143 27 -165 23 -30 52 -39 64 -19 14 21 10 199 -6 293 -19 105 -65 222 -103 258 -76 73 -198 75 -277 5 l-35 -30 -39 35 c-38 35 -58 41 -155 49 -25 3 -34 12 -55 55 -38 75 -85 120 -175 164 -84 41 -101 45 -126 29z"/>
<path d="M4570 3520 c-40 -40 -14 -120 38 -120 42 0 49 11 49 78 l0 62 -34 0 c-20 0 -41 -8 -53 -20z"/>
<path d="M8410 3480 c0 -12 28 -42 77 -82 105 -85 124 -106 171 -185 64 -107 107 -136 136 -91 15 25 -75 199 -134 258 -86 86 -250 152 -250 100z"/>
<path d="M5930 3349 c-85 -12 -180 -59 -216 -106 -75 -98 -55 -256 40 -314 55 -33 60 -21 21 55 -30 60 -32 113 -4 167 41 81 190 120 379 99 178 -19 282 -64 468 -199 46 -33 89 -58 97 -55 19 8 27 47 19 103 -14 108 61 149 136 74 56 -57 82 -147 89 -309 5 -111 9 -135 25 -153 69 -76 97 60 56 271 -11 57 -20 117 -20 134 0 71 122 123 180 76 l23 -18 -27 -27 c-52 -52 -23 -163 49 -193 43 -17 95 2 115 41 19 38 17 119 -3 167 -32 77 -158 136 -261 124 -46 -6 -65 -15 -97 -43 l-39 -35 -39 35 c-28 25 -53 38 -86 42 -110 17 -163 -17 -174 -109 l-6 -56 -74 56 c-144 108 -226 143 -401 169 -105 16 -153 17 -250 4z"/>
<path d="M5110 3251 c0 -33 4 -41 19 -41 45 0 81 -66 81 -147 0 -47 16 -73 45 -73 50 0 61 89 20 170 -35 68 -75 104 -142 124 -21 7 -23 4 -23 -33z"/>
<path d="M8128 2773 c-23 -6 -23 -45 0 -66 58 -53 208 -79 280 -48 68 29 19 59 -99 60 -31 1 -64 11 -102 31 -31 17 -58 29 -59 29 -2 -1 -11 -3 -20 -6z"/>
<path d="M4907 2750 c-50 -39 -24 -122 38 -122 40 0 52 21 45 84 -4 48 -8 53 -31 56 -14 2 -37 -6 -52 -18z"/>
<path d="M7153 2683 c-23 -9 -14 -51 15 -71 35 -25 125 -52 174 -52 49 0 108 24 108 44 0 18 -18 23 -113 30 -47 4 -80 13 -110 31 -44 25 -52 27 -74 18z"/>
<path d="M4163 2645 c-47 -33 -19 -125 36 -125 39 0 49 16 47 80 -1 53 -2 55 -31 58 -17 1 -40 -4 -52 -13z"/>
</g>


</svg>